# xmcd
#
# Track frame offsets: 
#        225
#        16863
#        31334
#        45901
#        55092
#        69266
#        76971
#        90693
#        105456
#        120725
#        133048
#        145982
#        156984
#        165985
#        181024
#        195603
#        209935
#        222714
#        232904
#        242840
#
# Disc length: 3366 seconds
#
# Revision: 2
# Processed by: cddbd v1.5.2PL0 Copyright (c) Steve Scherf et al.
# Submitted via: ExactAudioCopy v1.0b3
#
DISCID=100d2314
DTITLE=Frank Sinatra - Frank Sinatra - Hits - CD 1
DYEAR=1900
DGENRE=Song
TTITLE0=My Way
TTITLE1=Some Enchanted Evening
TTITLE2=Imagination
TTITLE3=My Blue Heaven
TTITLE4=Begin The Beguine
TTITLE5=I`ve Got My Love To Keep Me Warm
TTITLE6=Whispering
TTITLE7=Fools Rush In
TTITLE8=Polka Dots and Moonbeams
TTITLE9=Come Fly With Me
TTITLE10=Monique
TTITLE11=April In Paris
TTITLE12=I`ve Got You Under My Skin
TTITLE13=East Of The Sun
TTITLE14=Daybreak
TTITLE15=I`ll Never Smile Again
TTITLE16=Kisses And Tears
TTITLE17=Getting To Know You
TTITLE18=Where Or When
TTITLE19=Moonlight In Vermont
EXTD=
EXTT0=
EXTT1=
EXTT2=
EXTT3=
EXTT4=
EXTT5=
EXTT6=
EXTT7=
EXTT8=
EXTT9=
EXTT10=
EXTT11=
EXTT12=
EXTT13=
EXTT14=
EXTT15=
EXTT16=
EXTT17=
EXTT18=
EXTT19=
PLAYORDER=
